<?xml version="1.0" encoding="utf-8"?>
<!-- Generator: Adobe Illustrator 24.2.2, SVG Export Plug-In . SVG Version: 6.00 Build 0)  -->
<svg version="1.1" id="Layer_1" xmlns="http://www.w3.org/2000/svg" xmlns:xlink="http://www.w3.org/1999/xlink" x="0px" y="0px"
	 viewBox="0 0 266 73" style="enable-background:new 0 0 266 73;" xml:space="preserve">
<g id="Layer_2_1_">
</g>
<g id="Layer_1_1_">
	<path d="M59,12.8c1.3-1.5,1.1-3.8-0.5-5c-4.7-3.5-10.2-5.8-16-6.7C35.5,0,28.3,1,21.8,4S9.9,11.9,6.2,18S0.6,31.1,0.9,38.3
		c0.3,7.1,2.7,14,6.9,19.8s10,10.2,16.7,12.6c6.7,2.5,14,2.9,20.9,1.2c5.7-1.4,11-4.1,15.4-8c1.5-1.3,1.5-3.6,0.1-5l-8.4-7.8
		c-1.2-1.1-3.1-1.2-4.4-0.1c-2,1.6-4.4,2.8-6.9,3.4c-3.5,0.8-7.1,0.6-10.5-0.6c-3.3-1.2-6.3-3.4-8.4-6.3c-2.1-2.9-3.3-6.3-3.4-9.9
		c-0.1-3.6,0.8-7.1,2.6-10.1c1.9-3,4.6-5.5,7.8-7s6.8-2,10.4-1.4c2.6,0.4,5,1.4,7.2,2.8c1.4,0.9,3.2,0.7,4.3-0.5L59,12.8z"/>
	<path d="M48,2.5c-4.5-1.5-9.3-2-14-1.6s-9.3,1.7-13.5,3.8c-4.2,2.2-8,5.1-11,8.7C6.4,17,4.1,21.2,2.6,25.7l17.2,5.5
		c0.7-2.3,1.9-4.3,3.4-6.1c1.5-1.8,3.4-3.3,5.5-4.4s4.4-1.7,6.8-1.9c2.4-0.2,4.7,0.1,7,0.8L48,2.5z"/>
	<path d="M49.5,40.7l16.3,14.9c0.6,0.5,1.5,0.5,2-0.1c1.2-1.5,3.3-4.2,4.4-6.8c1-2.5,1.3-4.9,1.4-6.3c0-0.7-0.4-1.3-1.1-1.5
		l-20.6-4.8C49.2,35.5,47.5,38.8,49.5,40.7z"/>
	<g>
		<path d="M108.2,39.1v24.1H105V43.6L96.6,54l-8.4-10.4v19.6H85V39.1h3.4l8.2,10.1l8.2-10.1H108.2z"/>
		<path d="M129.4,63.3h-3.2v-2.7c-1.3,2.1-3.2,3.1-5.8,3.1c-2.6,0-4.7-0.8-6.5-2.5s-2.7-3.7-2.7-6s0.9-4.3,2.7-6s4-2.5,6.5-2.5
			c2.6,0,4.5,1,5.8,3.1V48h3.2V63.3z M126.1,56.4V54c-0.2-1.1-0.8-2.1-1.6-2.9c-1.2-1.1-2.6-1.7-4.2-1.7s-3,0.6-4.2,1.7
			c-1.2,1.1-1.8,2.5-1.8,4.1s0.6,3,1.8,4.1s2.6,1.7,4.2,1.7s3-0.6,4.2-1.7C125.4,58.4,125.9,57.5,126.1,56.4z"/>
		<path d="M132.6,39.1h3.2v8.8c0.5-0.6,1.7-0.8,3.4-0.8c2,0,3.7,0.6,5,1.8s1.9,2.6,1.9,4.3v10h-3.2v-9.9c0-1-0.4-1.9-1.1-2.6
			s-1.6-1-2.6-1c-0.9,0-1.8,0.3-2.5,1c-0.4,0.4-0.7,0.8-0.9,1.1v11.4h-3.2L132.6,39.1L132.6,39.1z"/>
		<path d="M167.1,63.3h-3.2v-2.7c-1.3,2.1-3.2,3.1-5.8,3.1s-4.7-0.8-6.5-2.5s-2.7-3.7-2.7-6s0.9-4.3,2.7-6s4-2.5,6.5-2.5
			c2.6,0,4.5,1,5.8,3.1V48h3.2V63.3z M163.9,56.4V54c-0.2-1.1-0.8-2.1-1.6-2.9c-1.2-1.1-2.6-1.7-4.2-1.7c-1.6,0-3,0.6-4.2,1.7
			c-1.2,1.1-1.8,2.5-1.8,4.1s0.6,3,1.8,4.1s2.6,1.7,4.2,1.7c1.6,0,3-0.6,4.2-1.7C163.1,58.4,163.7,57.5,163.9,56.4z"/>
		<path d="M177.9,50.2c-1.5,0.2-2.6,0.8-3.4,1.7c-0.8,0.9-1.2,2-1.2,3.3v8H170V47.9h3.2v2.2c0.5-1.2,1.5-2,3.1-2.5L177.9,50.2z"/>
		<path d="M198.3,63.3h-3.2v-2.7c-1.3,2.1-3.2,3.1-5.8,3.1s-4.7-0.8-6.5-2.5s-2.7-3.7-2.7-6s0.9-4.3,2.7-6s4-2.5,6.5-2.5
			c2.6,0,4.5,1,5.8,3.1V39.1h3.2V63.3z M195.1,56.4V54c-0.2-1.1-0.8-2.1-1.6-2.9c-1.2-1.1-2.6-1.7-4.2-1.7c-1.6,0-3,0.6-4.2,1.7
			c-1.2,1.1-1.8,2.5-1.8,4.1s0.6,3,1.8,4.1s2.6,1.7,4.2,1.7c1.6,0,3-0.6,4.2-1.7C194.3,58.4,194.9,57.5,195.1,56.4z"/>
		<path d="M205.2,43.6c0.4,0.4,0.6,0.8,0.6,1.3s-0.2,1-0.6,1.4c-0.4,0.4-1,0.6-1.6,0.6c-0.7,0-1.2-0.2-1.7-0.6
			c-0.4-0.4-0.6-0.9-0.6-1.4s0.2-0.9,0.6-1.3c0.4-0.4,1-0.6,1.7-0.6C204.2,43,204.8,43.2,205.2,43.6z M205.2,47.9v15.3H202V47.9
			H205.2z"/>
		<path d="M218.8,47.9l-4.3,5l6.2,10.3H217l-4.6-7.9l-0.2,0.3v7.6H209V42h3.2v9l2.7-3.1H218.8z"/>
		<path d="M239.4,63.3h-3.2v-2.7c-1.3,2.1-3.2,3.1-5.8,3.1s-4.7-0.8-6.5-2.5s-2.7-3.7-2.7-6s0.9-4.3,2.7-6s4-2.5,6.5-2.5
			c2.6,0,4.5,1,5.8,3.1V48h3.2V63.3z M236.2,56.4V54c-0.2-1.1-0.8-2.1-1.6-2.9c-1.2-1.1-2.6-1.7-4.2-1.7c-1.6,0-3,0.6-4.2,1.7
			c-1.2,1.1-1.8,2.5-1.8,4.1s0.6,3,1.8,4.1s2.6,1.7,4.2,1.7c1.6,0,3-0.6,4.2-1.7C235.4,58.4,235.9,57.5,236.2,56.4z"/>
		<path d="M259.1,51.6c-1.6,0.3-2.4,1.9-2.4,4.7v0.5c0,5.1-1.9,7.9-5.8,8.3V63c1.8-0.4,2.7-2.6,2.7-6.4v-0.7c0-2.6,0.4-4.3,1.2-4.9
			c-0.8-0.7-1.2-2.3-1.2-4.9v-0.7c0-3.8-0.9-5.9-2.7-6.4v-2.2c3.8,0.4,5.8,3.2,5.8,8.3v0.5c0,2.8,0.8,4.4,2.4,4.7V51.6z"/>
	</g>
	<g>
		<path d="M81.5,18.2c1.7-0.3,2.5-1.9,2.5-4.7V13c0-5.1,2-7.8,6.1-8.2V7c-1.9,0.4-2.8,2.5-2.8,6.3V14c0,2.6-0.4,4.2-1.3,4.9
			c0.9,0.7,1.3,2.3,1.3,4.9v0.7c0,3.8,0.9,5.9,2.8,6.3V33C86,32.4,84,29.7,84,24.6v-0.5c0-2.8-0.8-4.4-2.5-4.7V18.2z"/>
		<path d="M125.7,27.7c-2.8,2.3-6,3.5-9.6,3.5c-3.9,0-7.2-1.2-10-3.6c-2.7-2.4-4.1-5.3-4.1-8.6s1.4-6.2,4.1-8.6s6-3.6,10-3.6
			c3.7,0,7,1.2,10,3.7l-2.4,1.9c-2.5-1.9-5-2.9-7.7-2.9c-2.9,0-5.4,0.9-7.5,2.8s-3.1,4.1-3.1,6.8s1,5,3.1,6.8
			c2.1,1.8,4.6,2.8,7.5,2.8c2.5,0,4.6-0.6,6.3-1.8v-7.3h3.4C125.7,19.6,125.7,27.7,125.7,27.7z"/>
		<path d="M132,22.9L132,22.9c0,1.7,0.6,3,1.9,4.1c1.2,1.1,2.7,1.6,4.4,1.6s3.1-0.6,4.4-1.7c0.2-0.2,0.5-0.5,1-1l3.2,1
			c-0.5,0.7-1,1.3-1.7,1.9c-1.9,1.7-4.2,2.5-7,2.5c-2.7,0-5-0.8-6.9-2.5s-2.8-3.6-2.8-5.9s0.9-4.3,2.8-5.9c1.9-1.7,4.2-2.5,6.9-2.5
			s5.1,0.8,7,2.5c1.6,1.5,2.5,3.4,2.5,5.8H132V22.9z M132.6,20.3h11.2c-0.8-2.1-2.7-3.1-5.6-3.1C135.3,17.2,133.4,18.2,132.6,20.3z"
			/>
		<path d="M157.5,18.6H150V16h13l-8.1,12.4h8.2V31h-13.6L157.5,18.6z"/>
		<path d="M184.9,30.9h-3.4v-2.7c-1.3,2-3.4,3.1-6.1,3.1c-2.7,0-5-0.8-6.9-2.5s-2.8-3.6-2.8-5.9s0.9-4.3,2.8-5.9
			c1.9-1.7,4.2-2.5,6.9-2.5s4.8,1,6.1,3v-1.8h3.4V30.9z M181.5,24.1v-2.4c-0.2-1.1-0.8-2-1.7-2.8c-1.3-1.1-2.7-1.7-4.4-1.7
			s-3.2,0.6-4.4,1.7s-1.9,2.5-1.9,4.1s0.6,3,1.9,4.1s2.7,1.6,4.4,1.6s3.1-0.6,4.4-1.7C180.7,26.2,181.2,25.2,181.5,24.1z"/>
	</g>
</g>
</svg>
