<?xml version="1.0" encoding="utf-8"?>
<!-- Generator: Adobe Illustrator 24.2.2, SVG Export Plug-In . SVG Version: 6.00 Build 0)  -->
<svg version="1.1" xmlns="http://www.w3.org/2000/svg" xmlns:xlink="http://www.w3.org/1999/xlink" x="0px" y="0px"
	 viewBox="0 0 266 73" style="enable-background:new 0 0 266 73;" xml:space="preserve">
<style type="text/css">
	.st0{fill:#FFFFFF;}
</style>
<g id="Layer_2">
</g>
<g id="Layer_1">
	<path class="st0" d="M59,12.8c1.3-1.5,1.1-3.8-0.5-5c-4.7-3.5-10.2-5.8-16-6.7C35.5,0,28.3,1,21.8,4C15.3,7,9.9,11.9,6.2,18
		c-3.7,6.1-5.6,13.1-5.3,20.3c0.3,7.1,2.7,14,6.9,19.8c4.2,5.8,10,10.2,16.7,12.6c6.7,2.5,14,2.9,20.9,1.2c5.7-1.4,11-4.1,15.4-8
		c1.5-1.3,1.5-3.6,0.1-5l-8.4-7.8c-1.2-1.1-3.1-1.2-4.4-0.1c-2,1.6-4.4,2.8-6.9,3.4c-3.5,0.8-7.1,0.6-10.5-0.6
		c-3.3-1.2-6.3-3.4-8.4-6.3c-2.1-2.9-3.3-6.3-3.4-9.9c-0.1-3.6,0.8-7.1,2.6-10.1c1.9-3,4.6-5.5,7.8-7c3.2-1.5,6.8-2,10.4-1.4
		c2.6,0.4,5,1.4,7.2,2.8c1.4,0.9,3.2,0.7,4.3-0.5L59,12.8z"/>
	<path class="st0" d="M48,2.5c-4.5-1.5-9.3-2-14-1.6c-4.7,0.4-9.3,1.7-13.5,3.8c-4.2,2.2-8,5.1-11,8.7C6.4,17,4.1,21.2,2.6,25.7
		l17.2,5.5c0.7-2.3,1.9-4.3,3.4-6.1c1.5-1.8,3.4-3.3,5.5-4.4c2.1-1.1,4.4-1.7,6.8-1.9c2.4-0.2,4.7,0.1,7,0.8L48,2.5z"/>
	<path class="st0" d="M49.5,40.7l16.3,14.9c0.6,0.5,1.5,0.5,2-0.1c1.2-1.5,3.3-4.2,4.4-6.8c1-2.5,1.3-4.9,1.4-6.3
		c0-0.7-0.4-1.3-1.1-1.5l-20.6-4.8C49.2,35.5,47.5,38.8,49.5,40.7z"/>
	<g>
		<path class="st0" d="M108.2,39.1v24.1H105V43.6l-8.4,10.4l-8.4-10.4v19.6h-3.2V39.1h3.4l8.2,10.1l8.2-10.1H108.2z"/>
		<path class="st0" d="M129.4,63.3h-3.2v-2.7c-1.3,2.1-3.2,3.1-5.8,3.1c-2.6,0-4.7-0.8-6.5-2.5c-1.8-1.7-2.7-3.7-2.7-6
			c0-2.3,0.9-4.3,2.7-6s4-2.5,6.5-2.5c2.6,0,4.5,1,5.8,3.1v-1.8h3.2V63.3z M126.1,56.4v-2.4c-0.2-1.1-0.8-2.1-1.6-2.9
			c-1.2-1.1-2.6-1.7-4.2-1.7c-1.6,0-3,0.6-4.2,1.7c-1.2,1.1-1.8,2.5-1.8,4.1c0,1.6,0.6,3,1.8,4.1s2.6,1.7,4.2,1.7
			c1.6,0,3-0.6,4.2-1.7C125.4,58.4,125.9,57.5,126.1,56.4z"/>
		<path class="st0" d="M132.6,39.1h3.2v8.8c0.5-0.6,1.7-0.8,3.4-0.8c2,0,3.7,0.6,5,1.8c1.3,1.2,1.9,2.6,1.9,4.3v10h-3.2v-9.9
			c0-1-0.4-1.9-1.1-2.6s-1.6-1-2.6-1c-0.9,0-1.8,0.3-2.5,1c-0.4,0.4-0.7,0.8-0.9,1.1v11.4h-3.2V39.1z"/>
		<path class="st0" d="M167.1,63.3h-3.2v-2.7c-1.3,2.1-3.2,3.1-5.8,3.1c-2.6,0-4.7-0.8-6.5-2.5c-1.8-1.7-2.7-3.7-2.7-6
			c0-2.3,0.9-4.3,2.7-6c1.8-1.7,4-2.5,6.5-2.5c2.6,0,4.5,1,5.8,3.1v-1.8h3.2V63.3z M163.9,56.4v-2.4c-0.2-1.1-0.8-2.1-1.6-2.9
			c-1.2-1.1-2.6-1.7-4.2-1.7c-1.6,0-3,0.6-4.2,1.7c-1.2,1.1-1.8,2.5-1.8,4.1c0,1.6,0.6,3,1.8,4.1s2.6,1.7,4.2,1.7
			c1.6,0,3-0.6,4.2-1.7C163.1,58.4,163.7,57.5,163.9,56.4z"/>
		<path class="st0" d="M177.9,50.2c-1.5,0.2-2.6,0.8-3.4,1.7c-0.8,0.9-1.2,2-1.2,3.3v8H170V47.9h3.2v2.2c0.5-1.2,1.5-2,3.1-2.5
			L177.9,50.2z"/>
		<path class="st0" d="M198.3,63.3h-3.2v-2.7c-1.3,2.1-3.2,3.1-5.8,3.1c-2.6,0-4.7-0.8-6.5-2.5c-1.8-1.7-2.7-3.7-2.7-6
			c0-2.3,0.9-4.3,2.7-6c1.8-1.7,4-2.5,6.5-2.5c2.6,0,4.5,1,5.8,3.1V39.1h3.2V63.3z M195.1,56.4v-2.4c-0.2-1.1-0.8-2.1-1.6-2.9
			c-1.2-1.1-2.6-1.7-4.2-1.7c-1.6,0-3,0.6-4.2,1.7c-1.2,1.1-1.8,2.5-1.8,4.1c0,1.6,0.6,3,1.8,4.1s2.6,1.7,4.2,1.7
			c1.6,0,3-0.6,4.2-1.7C194.3,58.4,194.9,57.5,195.1,56.4z"/>
		<path class="st0" d="M205.2,43.6c0.4,0.4,0.6,0.8,0.6,1.3c0,0.5-0.2,1-0.6,1.4c-0.4,0.4-1,0.6-1.6,0.6c-0.7,0-1.2-0.2-1.7-0.6
			c-0.4-0.4-0.6-0.9-0.6-1.4c0-0.5,0.2-0.9,0.6-1.3c0.4-0.4,1-0.6,1.7-0.6C204.2,43,204.8,43.2,205.2,43.6z M205.2,47.9v15.3H202
			V47.9H205.2z"/>
		<path class="st0" d="M218.8,47.9l-4.3,5l6.2,10.3h-3.7l-4.6-7.9l-0.2,0.3v7.6H209V42h3.2V51l2.7-3.1H218.8z"/>
		<path class="st0" d="M239.4,63.3h-3.2v-2.7c-1.3,2.1-3.2,3.1-5.8,3.1c-2.6,0-4.7-0.8-6.5-2.5c-1.8-1.7-2.7-3.7-2.7-6
			c0-2.3,0.9-4.3,2.7-6c1.8-1.7,4-2.5,6.5-2.5c2.6,0,4.5,1,5.8,3.1v-1.8h3.2V63.3z M236.2,56.4v-2.4c-0.2-1.1-0.8-2.1-1.6-2.9
			c-1.2-1.1-2.6-1.7-4.2-1.7c-1.6,0-3,0.6-4.2,1.7c-1.2,1.1-1.8,2.5-1.8,4.1c0,1.6,0.6,3,1.8,4.1s2.6,1.7,4.2,1.7
			c1.6,0,3-0.6,4.2-1.7C235.4,58.4,235.9,57.5,236.2,56.4z"/>
		<path class="st0" d="M259.1,51.6c-1.6,0.3-2.4,1.9-2.4,4.7v0.5c0,5.1-1.9,7.9-5.8,8.3V63c1.8-0.4,2.7-2.6,2.7-6.4v-0.7
			c0-2.6,0.4-4.3,1.2-4.9c-0.8-0.7-1.2-2.3-1.2-4.9v-0.7c0-3.8-0.9-5.9-2.7-6.4v-2.2c3.8,0.4,5.8,3.2,5.8,8.3v0.5
			c0,2.8,0.8,4.4,2.4,4.7V51.6z"/>
	</g>
	<g>
		<path class="st0" d="M81.5,18.2c1.7-0.3,2.5-1.9,2.5-4.7V13c0-5.1,2-7.8,6.1-8.2V7c-1.9,0.4-2.8,2.5-2.8,6.3V14
			c0,2.6-0.4,4.2-1.3,4.9c0.9,0.7,1.3,2.3,1.3,4.9v0.7c0,3.8,0.9,5.9,2.8,6.3v2.2C86,32.4,84,29.7,84,24.6v-0.5
			c0-2.8-0.8-4.4-2.5-4.7V18.2z"/>
		<path class="st0" d="M125.7,27.7c-2.8,2.3-6,3.5-9.6,3.5c-3.9,0-7.2-1.2-10-3.6c-2.7-2.4-4.1-5.3-4.1-8.6c0-3.3,1.4-6.2,4.1-8.6
			c2.7-2.4,6-3.6,10-3.6c3.7,0,7,1.2,10,3.7l-2.4,1.9c-2.5-1.9-5-2.9-7.7-2.9c-2.9,0-5.4,0.9-7.5,2.8c-2.1,1.9-3.1,4.1-3.1,6.8
			c0,2.7,1,5,3.1,6.8c2.1,1.8,4.6,2.8,7.5,2.8c2.5,0,4.6-0.6,6.3-1.8v-7.3h3.4V27.7z"/>
		<path class="st0" d="M132,22.9L132,22.9c0,1.7,0.6,3,1.9,4.1c1.2,1.1,2.7,1.6,4.4,1.6c1.7,0,3.1-0.6,4.4-1.7c0.2-0.2,0.5-0.5,1-1
			l3.2,1c-0.5,0.7-1,1.3-1.7,1.9c-1.9,1.7-4.2,2.5-7,2.5c-2.7,0-5-0.8-6.9-2.5c-1.9-1.7-2.8-3.6-2.8-5.9c0-2.3,0.9-4.3,2.8-5.9
			c1.9-1.7,4.2-2.5,6.9-2.5c2.7,0,5.1,0.8,7,2.5c1.6,1.5,2.5,3.4,2.5,5.8H132z M132.6,20.3h11.2c-0.8-2.1-2.7-3.1-5.6-3.1
			C135.3,17.2,133.4,18.2,132.6,20.3z"/>
		<path class="st0" d="M157.5,18.6H150V16h13l-8.1,12.4h8.2v2.6h-13.6L157.5,18.6z"/>
		<path class="st0" d="M184.9,30.9h-3.4v-2.7c-1.3,2-3.4,3.1-6.1,3.1c-2.7,0-5-0.8-6.9-2.5c-1.9-1.7-2.8-3.6-2.8-5.9
			c0-2.3,0.9-4.3,2.8-5.9c1.9-1.7,4.2-2.5,6.9-2.5c2.7,0,4.8,1,6.1,3v-1.8h3.4V30.9z M181.5,24.1v-2.4c-0.2-1.1-0.8-2-1.7-2.8
			c-1.3-1.1-2.7-1.7-4.4-1.7c-1.7,0-3.2,0.6-4.4,1.7c-1.2,1.1-1.9,2.5-1.9,4.1c0,1.6,0.6,3,1.9,4.1s2.7,1.6,4.4,1.6
			c1.7,0,3.1-0.6,4.4-1.7C180.7,26.2,181.2,25.2,181.5,24.1z"/>
	</g>
</g>
</svg>
